<svg width="92" height="31" viewBox="0 0 92 31" fill="none" xmlns="http://www.w3.org/2000/svg">
<path d="M8.32 23H0.43V1.07H8.11C14.59 1.07 19.06 5.54 19.06 12.08C19.06 18.53 14.68 23 8.32 23ZM7.75 4.61H4.27V19.46H7.96C12.34 19.46 15.01 16.64 15.01 12.08C15.01 7.43 12.28 4.61 7.75 4.61ZM23.927 5.21C22.667 5.21 21.677 4.22 21.677 2.99C21.677 1.76 22.667 0.8 23.927 0.8C25.127 0.8 26.117 1.76 26.117 2.99C26.117 4.22 25.127 5.21 23.927 5.21ZM22.097 23V8.18H25.757V23H22.097ZM40.7284 23H28.7584V20L36.1384 11.24H28.7584V8.18H40.7284V11.21L33.2284 19.94H40.7284V23ZM45.5481 5.21C44.2881 5.21 43.2981 4.22 43.2981 2.99C43.2981 1.76 44.2881 0.8 45.5481 0.8C46.7481 0.8 47.7381 1.76 47.7381 2.99C47.7381 4.22 46.7481 5.21 45.5481 5.21ZM43.7181 23V8.18H47.3781V23H43.7181ZM50.3195 15.26C50.3195 10.94 53.1395 7.7 57.3695 7.7C59.5895 7.7 61.3295 8.63 62.1995 10.22L62.4095 8.18H65.7995V22.25C65.7995 27.2 62.8295 30.29 58.0295 30.29C53.7695 30.29 50.8595 27.86 50.4095 23.9H54.0695C54.3095 25.82 55.7795 26.96 58.0295 26.96C60.5495 26.96 62.1695 25.37 62.1695 22.91V20.45C61.2395 21.83 59.4095 22.7 57.2795 22.7C53.0795 22.7 50.3195 19.55 50.3195 15.26ZM54.0095 15.17C54.0095 17.66 55.5995 19.52 57.9995 19.52C60.5195 19.52 62.0795 17.75 62.0795 15.17C62.0795 12.65 60.5495 10.91 57.9995 10.91C55.5695 10.91 54.0095 12.74 54.0095 15.17ZM68.7173 15.56C68.7173 10.94 72.0473 7.76 76.6373 7.76C81.2273 7.76 84.5573 10.94 84.5573 15.56C84.5573 20.18 81.2273 23.36 76.6373 23.36C72.0473 23.36 68.7173 20.18 68.7173 15.56ZM72.3773 15.56C72.3773 18.26 74.1173 20.09 76.6373 20.09C79.1573 20.09 80.8973 18.26 80.8973 15.56C80.8973 12.86 79.1573 11.03 76.6373 11.03C74.1173 11.03 72.3773 12.86 72.3773 15.56ZM89.0102 23.36C87.6902 23.36 86.5802 22.28 86.5802 20.99C86.5802 19.67 87.6902 18.59 89.0102 18.59C90.3302 18.59 91.4402 19.67 91.4402 20.99C91.4402 22.28 90.3302 23.36 89.0102 23.36Z" fill="white"/>
</svg>
