<svg width="71" height="71" viewBox="0 0 71 71" fill="none" xmlns="http://www.w3.org/2000/svg">
<g opacity="0.5" clip-path="url(#clip0_199_56)">
<path d="M23.6667 11.8333H11.8333C8.69494 11.8333 5.68508 13.08 3.4659 15.2992C1.24672 17.5184 0 20.5283 0 23.6666L0 35.5C0 37.0692 0.623361 38.5741 1.73295 39.6837C2.84254 40.7933 4.34747 41.4166 5.91667 41.4166H20.7083C20.7036 45.3382 19.1437 49.0978 16.3708 51.8707C13.5978 54.6437 9.83822 56.2036 5.91667 56.2083C4.73977 56.2083 3.61107 56.6758 2.77888 57.508C1.94669 58.3402 1.47917 59.4689 1.47917 60.6458C1.47917 61.8227 1.94669 62.9514 2.77888 63.7836C3.61107 64.6158 4.73977 65.0833 5.91667 65.0833C12.1913 65.0763 18.2069 62.5806 22.6437 58.1437C27.0806 53.7069 29.5763 47.6913 29.5833 41.4166V17.75C29.5833 16.1808 28.96 14.6759 27.8504 13.5663C26.7408 12.4567 25.2359 11.8333 23.6667 11.8333Z" fill="#564C4C"/>
<path d="M65.0837 11.8333H53.2503C50.1119 11.8333 47.1021 13.08 44.8829 15.2992C42.6637 17.5184 41.417 20.5283 41.417 23.6666V35.5C41.417 37.0692 42.0404 38.5741 43.1499 39.6837C44.2595 40.7933 45.7645 41.4166 47.3337 41.4166H62.1253C62.1206 45.3382 60.5607 49.0978 57.7878 51.8707C55.0148 54.6437 51.2552 56.2036 47.3337 56.2083C46.1568 56.2083 45.0281 56.6758 44.1959 57.508C43.3637 58.3402 42.8962 59.4689 42.8962 60.6458C42.8962 61.8227 43.3637 62.9514 44.1959 63.7836C45.0281 64.6158 46.1568 65.0833 47.3337 65.0833C53.6083 65.0763 59.6239 62.5806 64.0607 58.1437C68.4976 53.7069 70.9933 47.6913 71.0003 41.4166V17.75C71.0003 16.1808 70.377 14.6759 69.2674 13.5663C68.1578 12.4567 66.6529 11.8333 65.0837 11.8333Z" fill="#564C4C"/>
</g>
<defs>
<clipPath id="clip0_199_56">
<rect width="71" height="71" fill="white"/>
</clipPath>
</defs>
</svg>
