<svg width="124" height="78" viewBox="0 0 124 78" fill="none" xmlns="http://www.w3.org/2000/svg">
<g id="Group">
<g id="Group_2">
<path id="Vector" fill-rule="evenodd" clip-rule="evenodd" d="M10.0001 0H114.5C119.6 0 123.7 4.2 123.7 9.2V52.6C123.7 57.7 119.5 61.8 114.5 61.8H10.0001C4.9001 61.8 0.800089 57.6 0.800089 52.6V9.2C0.700089 4.2 4.9001 0 10.0001 0Z" fill="#E9B849"/>
<path id="Vector_2" fill-rule="evenodd" clip-rule="evenodd" d="M14.5999 54.2H46.2999L14.3999 78L14.5999 54.2Z" fill="#E9B849"/>
</g>
<g id="Group_3">
<path id="Vector_3" fill-rule="evenodd" clip-rule="evenodd" d="M45.4999 20.4C44.5999 20.4 43.8999 19.7 43.8999 18.8C43.8999 17.9 44.5999 17.2 45.4999 17.2H109.8C110.7 17.2 111.4 17.9 111.4 18.8C111.4 19.7 110.7 20.4 109.8 20.4H45.4999Z" fill="white"/>
<path id="Vector_4" fill-rule="evenodd" clip-rule="evenodd" d="M45.4999 33.6C44.5999 33.6 43.8999 32.9 43.8999 32C43.8999 31.1 44.5999 30.4 45.4999 30.4H109.8C110.7 30.4 111.4 31.1 111.4 32C111.4 32.9 110.7 33.6 109.8 33.6H45.4999Z" fill="white"/>
<path id="Vector_5" fill-rule="evenodd" clip-rule="evenodd" d="M45.4999 46.8C44.5999 46.8 43.8999 46.1 43.8999 45.2C43.8999 44.3 44.5999 43.6 45.4999 43.6H77.5999C78.4999 43.6 79.1999 44.3 79.1999 45.2C79.1999 46.1 78.4999 46.8 77.5999 46.8H45.4999Z" fill="white"/>
<path id="Vector_6" fill-rule="evenodd" clip-rule="evenodd" d="M84.8999 43.5C85.7999 43.5 86.4999 44.2 86.4999 45.1C86.4999 46 85.7999 46.7 84.8999 46.7H83.4999C82.5999 46.7 81.8999 46 81.8999 45.1C81.8999 44.2 82.5999 43.5 83.4999 43.5H84.8999Z" fill="white"/>
<path id="Vector_7" fill-rule="evenodd" clip-rule="evenodd" d="M91 43.5C91.9 43.5 92.6 44.2 92.6 45.1C92.6 46 91.9 46.7 91 46.7H89.6C88.7 46.7 88 46 88 45.1C88 44.2 88.7 43.5 89.6 43.5H91Z" fill="white"/>
<path id="Vector_8" fill-rule="evenodd" clip-rule="evenodd" d="M97.1001 43.5C98.0001 43.5 98.7001 44.2 98.7001 45.1C98.7001 46 98.0001 46.7 97.1001 46.7H95.7001C94.8001 46.7 94.1001 46 94.1001 45.1C94.1001 44.2 94.8001 43.5 95.7001 43.5H97.1001Z" fill="white"/>
</g>
<path id="Vector_9" fill-rule="evenodd" clip-rule="evenodd" d="M23.3 25.3C27.6 25.3 31.1 21.8 31.1 17.5C31.1 13.2 27.6 9.70001 23.3 9.70001C19 9.70001 15.5 13.2 15.5 17.5C15.5 21.7 19 25.3 23.3 25.3Z" fill="white"/>
<path id="Vector_10" fill-rule="evenodd" clip-rule="evenodd" d="M23.3002 24.5C29.7002 24.5 34.9002 29.7 34.9002 36.1V49H11.7002V36.1C11.7002 29.8 16.9002 24.5 23.3002 24.5Z" fill="white"/>
</g>
</svg>
