<svg width="531" height="432" viewBox="0 0 531 432" fill="none" xmlns="http://www.w3.org/2000/svg">
<path fill-rule="evenodd" clip-rule="evenodd" d="M305.6 269.8C318.9 262.5 343.4 272 355.5 287.3C355.5 287.3 420.4 331.2 451.4 349.5C466.1 358.2 448.3 350.5 452.9 362.9C455.2 369.2 458.4 369.2 461.3 371.5C464.9 374.4 472.7 377.7 472.3 383C471.2 397.8 458.4 415.5 447.7 414.6C440.1 413.9 432.4 406.4 432.4 406.4C432.4 406.4 431.9 432 426.5 428.3C421.1 424.6 276.3 373.1 276.3 373.1L301.4 306.2L305.6 269.8Z" fill="#91BBC3"/>
<path fill-rule="evenodd" clip-rule="evenodd" d="M425.4 427.5C417.3 423.7 370.9 406.8 331.9 392.8C331 370.7 329.2 362.6 329.2 362.6L407.2 392.5C407.3 392.6 407.5 415.9 425.4 427.5Z" fill="#7FA5AB"/>
<path fill-rule="evenodd" clip-rule="evenodd" d="M117.2 277.2C133 265.2 168.6 257.8 177.5 257C217.7 253.6 273.5 251.8 304 265.8C306.8 267.1 319.1 268.5 321.9 270.2C361.4 293.3 393 349.7 393 349.7L331.3 387L333.5 430.7L157.3 429.3L146.6 381L66.2002 352.6C66.2002 352.7 89.2002 298.5 117.2 277.2Z" fill="#91BBC3"/>
<path fill-rule="evenodd" clip-rule="evenodd" d="M355.1 372.6L331.6 386.8C330.6 369.3 329.2 362.7 329.2 362.7L355.1 372.6ZM331.8 396.8C328.8 414.7 296.4 410.3 237.2 410.7C174.1 411.2 172.3 416.1 164.1 400.3C155.9 384.4 141 342.2 141 342.2C141 342.2 134.9 353.7 123.9 373L146.6 381L157.3 429.4L333.5 430.8L331.8 396.8Z" fill="#91BBC3"/>
<path fill-rule="evenodd" clip-rule="evenodd" d="M355.1 372.6L331.6 386.8C330.6 369.3 329.2 362.7 329.2 362.7L355.1 372.6ZM331.8 396.8C328.8 414.7 296.4 410.3 237.2 410.7C174.1 411.2 172.3 416.1 164.1 400.3C155.9 384.4 141 342.2 141 342.2C141 342.2 134.9 353.7 123.9 373L146.6 381L157.3 429.4L333.5 430.8L331.8 396.8Z" fill="#7FA5AB"/>
<path fill-rule="evenodd" clip-rule="evenodd" d="M133.7 281.5C98.7002 270.1 101.4 304.5 81.0002 325.9C48.2002 359.7 19.1002 382.2 0.700195 425.5L121.5 429.4L182.6 354.6C182.6 354.6 143.7 284.8 133.7 281.5Z" fill="#91BBC3"/>
<path fill-rule="evenodd" clip-rule="evenodd" d="M91.3003 428.5L121.6 429.5L157.5 385.5C149.7 366.8 141 342.2 141 342.2C141 342.2 122 377.9 91.3003 428.5Z" fill="#7FA5AB"/>
<path fill-rule="evenodd" clip-rule="evenodd" d="M438.9 331.8C417.7 333.4 412.4 355.1 405.9 376.9C403.2 385.8 412.8 418.4 421.8 425.2C440.2 439.1 472.4 428.6 481.4 410.8C490.4 393.1 485.5 335.8 485.5 335.8L438.9 331.8Z" fill="#91BBC3"/>
<path fill-rule="evenodd" clip-rule="evenodd" d="M448.2 327.3C432.3 328.8 428.3 348.7 423.4 368.7C418.5 388.7 421.5 400.3 435.3 413.1C449.1 425.9 473.3 416.2 480 399.9C486.7 383.6 483.1 331 483.1 331L448.2 327.3Z" fill="#32082F"/>
<path fill-rule="evenodd" clip-rule="evenodd" d="M327.1 295.2C327.3 294.6 327.9 294.4 328.5 294.6C329.1 294.8 329.3 295.4 329.1 296C328.5 297.7 327.8 299.2 327.1 300.7C324.5 306.3 321.8 312.2 324.6 324.7C326.8 334.7 328.6 346.3 330 358.3C331.4 370.3 332.5 382.9 333.4 394.8C333.4 395.4 333 395.9 332.4 395.9C331.8 395.9 331.3 395.5 331.3 394.9C330.4 383 329.3 370.5 327.9 358.5C326.5 346.5 324.8 335 322.6 325.1C319.6 311.9 322.5 305.7 325.3 299.7C325.8 298.3 326.5 296.8 327.1 295.2Z" fill="#32082F"/>
<path fill-rule="evenodd" clip-rule="evenodd" d="M122.4 315.5C122 315 122.1 314.4 122.6 314C123.1 313.6 123.7 313.7 124.1 314.2C126.7 317.5 129.3 320.4 131.7 323C137.3 329.2 141.6 334 142.3 340.8C145.5 371.3 147.4 379.7 149.9 390.5C150.3 392.1 150.7 393.8 151.1 395.9C151.2 396.5 150.9 397 150.3 397.2C149.7 397.3 149.2 397 149 396.4C148.6 394.6 148.2 392.8 147.8 391C145.3 380.2 143.4 371.7 140.2 341.1C139.6 335.1 135.4 330.5 130.1 324.5C127.7 321.8 125.1 318.9 122.4 315.5Z" fill="#32082F"/>
<path fill-rule="evenodd" clip-rule="evenodd" d="M425.4 335.2C425.8 334.7 426.4 334.6 426.9 335C427.4 335.4 427.5 336 427.1 336.5C426 338 424.4 339.8 422.8 341.8C419 346.4 414.6 351.7 412.9 355.2C408.1 365.5 406.9 376.4 407.9 387C408.8 397.7 411.9 408.2 415.5 417.5C415.7 418.1 415.4 418.7 414.9 418.9C414.3 419.1 413.7 418.8 413.5 418.3C409.8 408.8 406.7 398.1 405.8 387.2C404.8 376.2 406 365 411 354.3C412.8 350.5 417.3 345.1 421.2 340.4C422.7 338.6 424.2 336.8 425.4 335.2Z" fill="#32082F"/>
<path fill-rule="evenodd" clip-rule="evenodd" d="M460.3 260.8C454.9 274.1 422.1 358.4 424 376.2C425.9 393.9 439.5 412.6 453 410.6C466.5 408.5 476.5 403.5 485.1 385.3C493.7 367.1 491.4 265.6 491.4 265.6C491.4 265.6 508.6 242.4 510.5 232.5C510.5 232.3 484.8 200.7 460.3 260.8Z" fill="#E6B59F"/>
<path fill-rule="evenodd" clip-rule="evenodd" d="M497.4 254.3L475 285.3C475 285.3 449.9 303.1 459.3 282.3C468.7 261.4 463.7 235.6 485.8 220.9C507.9 206.2 510.7 198.6 510.7 198.6C510.7 198.6 513.4 182.7 517.7 179C525.1 172.4 527.6 170.2 526 179L523.7 188.4C533.8 182.2 530.8 189.2 527.2 196.1C525.6 199.2 524.7 200.6 522.5 203.4C532.6 198.2 532.2 201.7 527.5 209.2L523.3 218C525.9 216.1 531.9 214.3 528.6 219.5C524.9 225.3 513.6 238.5 513.6 238.5L497 255.6L497.4 254.3Z" fill="#E6B59F"/>
<path fill-rule="evenodd" clip-rule="evenodd" d="M496.7 213C496.5 212.6 496.6 212.1 497 211.8C497.4 211.5 497.9 211.7 498.2 212.1C498.2 212.1 507.2 226.5 497.6 245.4C497.4 245.8 496.9 246 496.4 245.8C496 245.6 495.8 245.1 496 244.6C505.2 226.6 496.8 213.1 496.7 213Z" fill="#32082F"/>
<path fill-rule="evenodd" clip-rule="evenodd" d="M463.8 253.4C463.5 234.8 462.6 232.6 467.7 216.9C469.8 210.4 470.8 205 471.1 201C473 181 481.4 198 482 202.6C483.6 213.2 479.7 220.3 479.7 220.3C479.7 220.3 486.5 225 485 239.9C483.6 254.8 464.1 272 463.8 253.4Z" fill="#E6B59F"/>
<path fill-rule="evenodd" clip-rule="evenodd" d="M525.6 186.6C526 186.4 526.6 186.5 526.8 187C527 187.4 526.9 188 526.4 188.2C523.4 189.8 521.4 191.2 519.8 192.9C518.3 194.5 517.2 196.4 516.1 198.8C513.8 203.7 513.3 206.8 513.3 206.8C513.3 207 513.2 207.1 513.1 207.3L500.9 219.7C500.6 220 500 220 499.7 219.7C499.4 219.4 499.4 218.8 499.7 218.5L511.7 206.3C511.9 205.4 512.6 202.4 514.6 198.2C515.8 195.6 517 193.6 518.6 191.9C520.3 189.8 522.5 188.2 525.6 186.6Z" fill="#32082F"/>
<path fill-rule="evenodd" clip-rule="evenodd" d="M528.1 200.9C528.6 200.8 529 201.1 529.1 201.6C529.2 202.1 528.9 202.5 528.4 202.6C525.2 203.3 523.1 204.2 521.5 205.4C519.9 206.6 518.9 208.1 517.8 210.2C515.6 214.4 515.1 217.4 515.1 217.4C515.1 217.7 514.9 217.9 514.7 218L502 227C501.6 227.3 501.1 227.2 500.8 226.8C500.5 226.4 500.6 225.9 501 225.6L513.5 216.7C513.7 215.7 514.4 213 516.3 209.3C517.5 207 518.7 205.3 520.5 203.9C522.3 202.6 524.7 201.6 528.1 200.9Z" fill="#32082F"/>
<path fill-rule="evenodd" clip-rule="evenodd" d="M526.9 215.8C527.4 215.6 527.9 215.9 528 216.4C528.2 216.9 527.9 217.4 527.4 217.5C524.7 218.4 522.7 219.3 521.1 220.5C519.5 221.6 518.2 223 516.8 224.8C513.9 228.4 512.7 230.9 512.7 230.9C512.6 231 512.5 231.2 512.4 231.2L499.8 239.8C499.4 240.1 498.9 240 498.6 239.6C498.3 239.2 498.4 238.7 498.8 238.4L511.2 229.9C511.6 229.2 512.9 226.9 515.4 223.7C516.9 221.8 518.3 220.3 520.1 219.1C521.9 217.8 524 216.8 526.9 215.8Z" fill="#32082F"/>
<path fill-rule="evenodd" clip-rule="evenodd" d="M482.4 224.4C482.1 224 482.2 223.5 482.6 223.3C483 223 483.5 223.1 483.7 223.5C483.7 223.5 487 227.6 484.6 240C484.5 240.4 484.1 240.7 483.7 240.6C483.3 240.5 483 240.1 483.1 239.7C485.3 227.9 482.4 224.4 482.4 224.4Z" fill="#32082F"/>
<path fill-rule="evenodd" clip-rule="evenodd" d="M184.7 237.8C174.6 246.1 168.5 256.2 174.7 273C186.7 305.6 205 349.9 222.7 324.5C240.3 299.1 243.2 287.6 243.2 287.6C243.2 287.6 271.7 315.9 286 314C300.9 312 274.3 258.4 248.3 240.8C235 230.2 188.2 235 184.7 237.8Z" fill="#32082F"/>
<path fill-rule="evenodd" clip-rule="evenodd" d="M131.3 161.6C120.1 181.1 128.9 198.3 138.4 204.8C147.9 211.3 154.5 211.9 154.5 211.9C154.5 211.9 150 219.2 151 227.4C152.1 235.6 161.3 219.7 161.3 219.7C161.3 219.7 160.5 230.7 165.7 231.5C170.8 232.3 171.6 215.7 171.6 215.7C171.6 215.7 181.5 221.7 187.1 216C192.6 210.2 169.1 146.4 167.2 145.5C165.3 144.5 142.5 142.1 131.3 161.6Z" fill="#32082F"/>
<path fill-rule="evenodd" clip-rule="evenodd" d="M176.4 193.9C181.7 225.3 183.9 242.9 184.8 252.6C185.9 263.9 250.2 299.1 247.4 267.2C246.3 254.1 244.4 237.3 246.1 234.7C254.9 221.3 271.5 209.3 271.5 209.3C271.5 209.3 166.5 135.7 176.4 193.9Z" fill="#E6B59F"/>
<path fill-rule="evenodd" clip-rule="evenodd" d="M193.3 209.6C203.8 230.2 221.1 252.7 246.1 251.6C245.4 243.3 245.1 236.2 246.2 234.6C255 221.2 271.6 209.2 271.6 209.2C271.6 209.2 265.5 204.9 256.4 199.3C224.5 196.2 186 195.2 193.3 209.6Z" fill="#32082F"/>
<path fill-rule="evenodd" clip-rule="evenodd" d="M267.2 76.9C279.8 72.3 305.1 77 307.4 92.5C309.6 108 296 118.6 296 118.6C296 118.6 307.5 121.2 308.3 136.9C309.1 152.6 292.8 162.2 292.8 162.2C300.9 185.7 283.4 190.4 263.9 198.5L227.9 83.5C227.9 83.6 254.6 81.4 267.2 76.9Z" fill="#32082F"/>
<path fill-rule="evenodd" clip-rule="evenodd" d="M160.5 154.2C159.3 160.5 179.1 229.3 238.8 228.8C260.5 228.6 273 223.4 280.5 205.3C286.5 190.8 280.8 155.3 268.8 125.4C244.9 65.5 194.4 86.2 179.8 106.6C165.2 127 161.7 147.8 160.5 154.2Z" fill="#E6B59F"/>
<path fill-rule="evenodd" clip-rule="evenodd" d="M250.201 97C224.701 74.4 191.3 90.6 179.9 106.6C175.2 113.2 171.7 119.8 169 125.9C175.4 134.6 182.2 141.1 184.9 137.1C190.8 128.5 184.4 108.1 184.4 108.1C184.4 108.1 216.701 102.6 250.201 97Z" fill="#CF7866"/>
<path fill-rule="evenodd" clip-rule="evenodd" d="M181.9 105.6C185.8 113.2 194.4 128.6 185.7 149.2C176.9 169.8 176.5 179.6 176.5 179.6C176.5 179.6 186 180.4 163.8 179.5C141.6 178.6 115.1 195.7 101.8 172C90.8003 152.3 107.2 138 107.2 138C107.2 138 81.9003 129.2 88.4003 109.8C94.4003 92 116.3 91.1 116.3 91.1C116.3 91.1 99.2003 82.6 104.3 74.9C110.4 65.7 120.3 79 120.3 79C120.3 79 104 56.6 119.2 37.9C136.9 16.2 150 42.3 150 42.3C150 42.3 156.5 11.2 182 8.40001C207.5 5.70001 196.4 28.5 196.4 28.5C196.4 28.5 220.7 -2.39999 253 0.200012C285.4 2.80001 264.8 24.6 264.8 24.6C264.8 24.6 289.7 14.3 300.8 30.8C313.6 49.9 294.7 62.2 294.7 62.2C294.7 62.2 309.6 59.5 306.2 71.3C302.1 85.5 252.4 90.9 252.4 90.9C252.4 90.9 178 98.1 181.9 105.6Z" fill="#32082F"/>
<path fill-rule="evenodd" clip-rule="evenodd" d="M148.8 40.2C149.6 41.4 150 42.2 150 42.2C150 42.2 150.6 39.1 152.3 34.9C167.4 46.1 183.8 33.2 183.8 33.2C183.8 33.2 187.4 39.6 201.5 42.7C215.6 45.9 236.4 31.4 236.4 31.4C236.4 31.4 242.3 33.7 261.4 32.8C272.5 32.3 281.2 26.6 286.6 21.8C291.9 22.7 297.1 25.2 300.8 30.7C301.7 32.1 302.5 33.5 303.1 34.8C299.4 37.9 293.9 41.7 286.3 45C269.5 52.3 248.2 45 248.2 45C248.2 45 239.6 53.6 215.1 53.6C190.6 53.6 189.7 47.7 189.7 47.7C189.7 47.7 185.2 52.2 169.7 53.1C158.2 53.8 150.7 47.9 148.8 40.2Z" fill="#573646"/>
<path fill-rule="evenodd" clip-rule="evenodd" d="M145.5 168.5C151.5 156.9 168.9 154.8 180.2 177.9L182.7 184.8C181.7 189 182.1 199 174.2 203.2C167 208.5 151.2 202.6 145.3 189.9C142.5 183.9 142.4 174.4 145.5 168.5Z" fill="#E6B59F"/>
<path fill-rule="evenodd" clip-rule="evenodd" d="M153.601 182.1C153.101 168.7 164.1 171.3 166.5 176.5C169.4 182.7 171.601 193.2 171.601 193.2C171.601 193.2 168.7 189.5 166.4 189.1C164 188.7 158.3 190.9 159.9 195.4L153.601 182.1Z" fill="#CE8C73"/>
<path fill-rule="evenodd" clip-rule="evenodd" d="M154.801 182.1C154.801 182.7 154.301 183.3 153.701 183.3C153.101 183.3 152.501 182.8 152.501 182.2C152.301 177.9 153.301 175.1 154.801 173.4C155.801 172.2 157.101 171.6 158.401 171.3C159.701 171 161.001 171.2 162.301 171.6C164.601 172.3 166.701 174 167.701 176.1C170.701 182.4 172.901 193 172.901 193.1C173.001 193.7 172.601 194.4 172.001 194.5C171.501 194.6 171.101 194.4 170.801 194C170.501 193.6 168.101 190.7 166.401 190.4C165.801 190.3 164.901 190.4 164.001 190.8C163.301 191.1 162.601 191.5 162.001 192C161.501 192.5 161.101 193 161.001 193.7C160.901 194.2 161.001 194.7 161.201 195.3C161.401 195.9 161.101 196.6 160.501 196.8C159.901 197 159.201 196.7 159.001 196.1C158.601 195.1 158.601 194.2 158.701 193.3C158.901 192.1 159.501 191.1 160.401 190.3C161.201 189.6 162.201 189 163.201 188.6C164.501 188.1 165.801 188 166.801 188.1C167.801 188.3 168.801 188.9 169.701 189.6C168.801 186 167.301 180.8 165.601 177.1C164.901 175.6 163.401 174.4 161.701 173.8C160.801 173.5 159.901 173.4 159.001 173.6C158.201 173.8 157.401 174.2 156.701 174.9C155.401 176.2 154.701 178.5 154.801 182.1Z" fill="#AE694C"/>
<path fill-rule="evenodd" clip-rule="evenodd" d="M169.101 203.2C168.501 202.9 168.301 202.2 168.601 201.6C168.901 201 169.601 200.8 170.201 201.1C175.301 203.9 177.701 211.6 178.001 219.1C178.101 221.7 177.901 224.3 177.501 226.6C177.101 229 176.401 231.1 175.501 232.7C174.301 234.9 172.701 236.3 170.701 236.4C170.401 236.5 170.101 236.5 169.801 236.5C167.701 236.7 165.901 235.6 164.401 233.8C163.101 232.2 162.201 229.9 161.501 227.4C161.101 225.8 160.801 224.2 160.701 222.5C160.001 214.4 162.201 206.3 162.201 206.2C162.401 205.6 163.001 205.2 163.601 205.4C164.201 205.6 164.601 206.2 164.401 206.8C164.401 206.8 162.301 214.6 162.901 222.3C163.001 223.8 163.301 225.4 163.601 226.8C164.201 229 165.001 231 166.101 232.3C167.001 233.5 168.201 234.2 169.401 234.1C169.601 234.1 169.801 234.1 170.001 234C170.101 234 170.201 234 170.301 234C171.501 234 172.501 233 173.301 231.5C174.101 230.1 174.701 228.2 175.001 226.1C175.401 223.9 175.601 221.5 175.501 219.1C175.501 212.5 173.401 205.6 169.101 203.2Z" fill="#E9B849"/>
<path fill-rule="evenodd" clip-rule="evenodd" d="M240.1 283.1C239.8 282.6 240 281.9 240.5 281.6C241 281.3 241.7 281.5 242 282C245.6 288.1 248.8 295.1 251.5 302.6C254.4 310.7 256.8 319.4 258.7 328.6C258.8 329.2 258.4 329.7 257.9 329.9C257.3 330 256.8 329.6 256.6 329.1C254.7 320.1 252.3 311.4 249.5 303.4C246.7 295.9 243.6 289.1 240.1 283.1Z" fill="#32082F"/>
<path fill-rule="evenodd" clip-rule="evenodd" d="M216.1 172.2C214.4 162.2 192.4 167.9 194.1 175.8C196.2 185.7 217.7 181.6 216.1 172.2Z" fill="#CF7866"/>
<path fill-rule="evenodd" clip-rule="evenodd" d="M280.1 159C278.7 150.8 260.6 155.4 262 161.9C263.7 170 281.4 166.7 280.1 159Z" fill="#CF7866"/>
<path fill-rule="evenodd" clip-rule="evenodd" d="M214 148C213.3 144 209.6 141.3 205.6 141.9C201.6 142.6 198.9 146.3 199.5 150.3L199.6 151.1C200.3 155.1 204 157.8 208 157.2C212 156.5 214.7 152.8 214.1 148.8L214 148Z" fill="#32082F"/>
<path fill-rule="evenodd" clip-rule="evenodd" d="M265.6 139.5C264.9 135.5 261.2 132.8 257.2 133.4C253.2 134.1 250.5 137.8 251.1 141.8L251.2 142.6C251.9 146.6 255.6 149.3 259.6 148.7C263.6 148 266.3 144.3 265.7 140.3L265.6 139.5Z" fill="#32082F"/>
<path fill-rule="evenodd" clip-rule="evenodd" d="M212.801 143.9C212.601 142.6 211.401 141.8 210.201 142C208.901 142.2 208.101 143.4 208.301 144.7V145C208.501 146.3 209.701 147.1 211.001 146.9C212.301 146.7 213.101 145.5 212.901 144.3L212.801 143.9Z" fill="white"/>
<path fill-rule="evenodd" clip-rule="evenodd" d="M264.301 135.5C264.101 134.2 262.901 133.4 261.701 133.6C260.401 133.8 259.601 135 259.801 136.3V136.6C260.001 137.9 261.201 138.7 262.501 138.5C263.801 138.3 264.601 137.1 264.401 135.8L264.301 135.5Z" fill="white"/>
<path fill-rule="evenodd" clip-rule="evenodd" d="M251.201 126.5C250.001 127.1 248.601 126.7 247.901 125.5C247.301 124.3 247.701 122.9 248.901 122.2C248.901 122.2 257.701 117.3 265.901 123.1C267.001 123.9 267.301 125.4 266.501 126.5C265.701 127.6 264.201 127.9 263.101 127.1C257.401 123 251.201 126.4 251.201 126.5Z" fill="#32082F"/>
<path fill-rule="evenodd" clip-rule="evenodd" d="M210.1 128.6C211.4 128.8 212.3 130.1 212.1 131.4C211.9 132.7 210.6 133.6 209.3 133.4C209.3 133.4 202.3 132.1 198.1 137.8C197.3 138.9 195.8 139.1 194.7 138.3C193.6 137.5 193.4 136 194.2 134.9C200.2 126.7 210 128.6 210.1 128.6Z" fill="#32082F"/>
<path fill-rule="evenodd" clip-rule="evenodd" d="M265 176C264.9 175.6 219.9 183.3 219.9 183.3C219.9 183.7 223.6 212.6 254.1 207.1C254 207 269.2 203.1 265 176Z" fill="#32082F"/>
<path fill-rule="evenodd" clip-rule="evenodd" d="M228.4 196.8C232.6 202.3 240 206.9 252.8 204.6C252.8 204.6 255.8 203.8 258.5 200.5C253.1 191.9 235.6 187 228.4 196.8Z" fill="#C63238"/>
<path fill-rule="evenodd" clip-rule="evenodd" d="M253.401 164.9C248.201 167 242.601 167.5 236.701 166.2C236.701 166.3 236.701 166.4 236.701 166.4C237.001 170.7 240.801 173.9 245.101 173.6L246.301 173.5C250.601 173.2 253.801 169.4 253.501 165.1C253.501 165 253.501 164.9 253.401 164.9Z" fill="#CF7866"/>
<path fill-rule="evenodd" clip-rule="evenodd" d="M246 154.8C245.3 154.4 245.1 153.5 245.5 152.8C245.9 152.1 246.8 151.9 247.5 152.3C247.5 152.3 255.7 157.1 255 166.5C254.9 167.3 254.2 167.9 253.4 167.8C252.6 167.7 252 167 252.1 166.2C252.7 158.6 246 154.8 246 154.8Z" fill="#32082F"/>
<path fill-rule="evenodd" clip-rule="evenodd" d="M262.5 183.8C256.7 185.4 247.4 188.5 224.1 189L222.9 185.5C241.4 182.4 244.9 182 262 178.8L262.5 183.8Z" fill="white"/>
<path fill-rule="evenodd" clip-rule="evenodd" d="M156.101 168.3C163.301 165.4 170.301 172.6 174.101 180.7C177.801 188.7 179.101 195.3 171.901 198.2C164.701 201.1 153.601 196.2 149.901 188.1C146.201 180.1 149.001 171.2 156.101 168.3Z" fill="#32082F"/>
<path fill-rule="evenodd" clip-rule="evenodd" d="M164.5 185.3C163.9 184.1 164.4 182.8 165.6 182.2C166.8 181.6 168.1 182.1 168.7 183.3C190.1 227 235.4 208.1 235.6 208C236.8 207.5 238.2 208.1 238.6 209.3C239.1 210.5 238.5 211.9 237.3 212.3C237.2 212.3 187.8 232.9 164.5 185.3Z" fill="#32082F"/>
<path fill-rule="evenodd" clip-rule="evenodd" d="M224.4 212.5C223.5 209.4 225.3 206.2 228.5 205.4L241.9 201.9C245 201.1 248.2 202.9 249.1 206C250 209.1 248.1 212.3 245 213.1L231.6 216.6C228.4 217.4 225.2 215.6 224.4 212.5Z" fill="#32082F"/>
</svg>
