<svg width="168" height="108" viewBox="0 0 168 108" fill="none" xmlns="http://www.w3.org/2000/svg">
<g id="Group">
<g id="Group_2">
<path id="Vector" fill-rule="evenodd" clip-rule="evenodd" d="M154.9 0.0999756H13C6.1 0.0999756 0.5 5.69998 0.5 12.6V71.5C0.5 78.4 6.1 84 13 84H154.8C161.7 84 167.3 78.4 167.3 71.5V12.7C167.4 5.79997 161.8 0.0999756 154.9 0.0999756Z" fill="#32082F"/>
<path id="Vector_2" fill-rule="evenodd" clip-rule="evenodd" d="M138.7 80.2H93.6001L138.3 108L138.7 80.2Z" fill="#32082F"/>
</g>
<g id="Group_3">
<path id="Vector_3" fill-rule="evenodd" clip-rule="evenodd" d="M106.6 19.3C107.5 19.3 108.2 20 108.2 20.9C108.2 21.8 107.5 22.5 106.6 22.5H19.3002C18.4002 22.5 17.7002 21.8 17.7002 20.9C17.7002 20 18.4002 19.3 19.3002 19.3H106.6Z" fill="white"/>
<path id="Vector_4" fill-rule="evenodd" clip-rule="evenodd" d="M106.6 37.1C107.5 37.1 108.2 37.8 108.2 38.7C108.2 39.6 107.5 40.3 106.6 40.3H19.3002C18.4002 40.3 17.7002 39.6 17.7002 38.7C17.7002 37.8 18.4002 37.1 19.3002 37.1H106.6Z" fill="white"/>
<path id="Vector_5" fill-rule="evenodd" clip-rule="evenodd" d="M106.6 55C107.5 55 108.2 55.7 108.2 56.6C108.2 57.5 107.5 58.2 106.6 58.2H57.4003C56.5003 58.2 55.8003 57.5 55.8003 56.6C55.8003 55.7 56.5003 55 57.4003 55H106.6Z" fill="white"/>
<path id="Vector_6" fill-rule="evenodd" clip-rule="evenodd" d="M48.9003 58.2C48.0003 58.2 47.3003 57.5 47.3003 56.6C47.3003 55.7 48.0003 55 48.9003 55H51.3003C52.2003 55 52.9003 55.7 52.9003 56.6C52.9003 57.5 52.2003 58.2 51.3003 58.2H48.9003Z" fill="white"/>
<path id="Vector_7" fill-rule="evenodd" clip-rule="evenodd" d="M40.5004 58.2C39.6004 58.2 38.9004 57.5 38.9004 56.6C38.9004 55.7 39.6004 55 40.5004 55H42.9004C43.8004 55 44.5004 55.7 44.5004 56.6C44.5004 57.5 43.8004 58.2 42.9004 58.2H40.5004Z" fill="white"/>
<path id="Vector_8" fill-rule="evenodd" clip-rule="evenodd" d="M32.1 58.2C31.2 58.2 30.5 57.5 30.5 56.6C30.5 55.7 31.2 55 32.1 55H34.5C35.4 55 36.1 55.7 36.1 56.6C36.1 57.5 35.4 58.2 34.5 58.2H32.1Z" fill="white"/>
</g>
<path id="Vector_9" fill-rule="evenodd" clip-rule="evenodd" d="M136.7 34.4C142.6 34.4 147.3 29.6 147.3 23.8C147.3 17.9 142.5 13.2 136.7 13.2C130.8 13.2 126.1 18 126.1 23.8C126.1 29.6 130.9 34.4 136.7 34.4Z" fill="white"/>
<path id="Vector_10" fill-rule="evenodd" clip-rule="evenodd" d="M136.7 33.4C128 33.4 120.9 40.5 120.9 49.2V66.6H152.5V49.2C152.5 40.5 145.4 33.4 136.7 33.4Z" fill="white"/>
</g>
</svg>
