<svg width="485" height="229" viewBox="0 0 485 229" fill="none" xmlns="http://www.w3.org/2000/svg">
<path fill-rule="evenodd" clip-rule="evenodd" d="M143.6 227C143.9 227.5 143.6 228.2 143.1 228.4C142.6 228.7 141.9 228.4 141.7 227.9C141.6 227.6 99.3997 140.8 30.8997 132.9C30.2997 132.8 29.8997 132.3 29.9997 131.7C30.0997 131.1 30.5997 130.7 31.1997 130.8C100.8 138.8 143.5 226.8 143.6 227Z" fill="#5A7B7E"/>
<path fill-rule="evenodd" clip-rule="evenodd" d="M18.2999 138.1C8.69988 138.3 0.899877 135.8 0.899877 132.6C0.799877 129.4 8.59988 126.7 18.0999 126.5C27.6999 126.3 35.4999 128.8 35.4999 132C35.5999 135.2 27.7999 137.9 18.2999 138.1Z" fill="#5A7B7E"/>
<path fill-rule="evenodd" clip-rule="evenodd" d="M37.6997 124.1C32.7997 115.9 31.0997 107.9 33.7997 106.3C36.4997 104.7 42.6997 110 47.5997 118.2C52.4997 126.4 54.1997 134.4 51.4997 136C48.7997 137.6 42.5997 132.3 37.6997 124.1Z" fill="#5A7B7E"/>
<path fill-rule="evenodd" clip-rule="evenodd" d="M58.6 127.4C56.4 118.1 57.2 109.9 60.3 109.2C63.4 108.5 67.7 115.4 69.9 124.8C72.1 134.1 71.3 142.3 68.2 143C65.1 143.7 60.8 136.7 58.6 127.4Z" fill="#5A7B7E"/>
<path fill-rule="evenodd" clip-rule="evenodd" d="M78.3998 137C78.1998 127.4 80.5998 119.6 83.7998 119.5C86.9998 119.4 89.7998 127.1 89.9998 136.7C90.1998 146.3 87.7998 154.1 84.5998 154.2C81.3998 154.3 78.5998 146.6 78.3998 137Z" fill="#5A7B7E"/>
<path fill-rule="evenodd" clip-rule="evenodd" d="M100.4 157.3C100.2 147.7 102.6 139.9 105.8 139.8C109 139.7 111.8 147.4 112 157C112.2 166.6 109.8 174.4 106.6 174.5C103.4 174.6 100.6 166.9 100.4 157.3Z" fill="#5A7B7E"/>
<path fill-rule="evenodd" clip-rule="evenodd" d="M119.9 180.1C119.7 170.5 122.1 162.7 125.3 162.6C128.5 162.5 131.3 170.2 131.5 179.8C131.7 189.4 129.3 197.2 126.1 197.3C122.9 197.4 120.2 189.7 119.9 180.1Z" fill="#5A7B7E"/>
<path fill-rule="evenodd" clip-rule="evenodd" d="M108.4 188.4C99.1001 186.2 90.9001 187 90.2001 190.1C89.5001 193.2 96.5001 197.5 105.8 199.6C115.1 201.8 123.3 201 124 197.9C124.7 194.8 117.7 190.5 108.4 188.4Z" fill="#5A7B7E"/>
<path fill-rule="evenodd" clip-rule="evenodd" d="M89.5 166.8C80.1 165.2 72 166.4 71.4 169.5C70.9 172.6 78.1 176.5 87.5 178.2C96.9 179.8 105 178.6 105.6 175.5C106.2 172.3 99 168.4 89.5 166.8Z" fill="#5A7B7E"/>
<path fill-rule="evenodd" clip-rule="evenodd" d="M66.6997 151C57.0997 151.5 49.4997 154.5 49.6997 157.7C49.8997 160.9 57.6997 163.1 67.2997 162.6C76.8997 162.1 84.4997 159.1 84.2997 155.9C84.0997 152.6 76.1997 150.5 66.6997 151Z" fill="#5A7B7E"/>
<path fill-rule="evenodd" clip-rule="evenodd" d="M40.3998 141.7C31.4998 145.4 25.2998 150.7 26.3998 153.7C27.4998 156.7 35.5998 156.1 44.4998 152.5C53.3998 148.8 59.5998 143.5 58.4998 140.5C57.2998 137.5 49.1998 138.1 40.3998 141.7Z" fill="#5A7B7E"/>
<path fill-rule="evenodd" clip-rule="evenodd" d="M334.9 186.4C334.6 186.9 333.9 187.1 333.4 186.7C332.9 186.4 332.7 185.7 333.1 185.2C333.2 185 384.1 101.5 454.2 100.2C454.8 100.2 455.3 100.7 455.3 101.3C455.3 101.9 454.8 102.4 454.2 102.4C385.3 103.8 335.1 186.2 334.9 186.4Z" fill="#5A7B7E"/>
<path fill-rule="evenodd" clip-rule="evenodd" d="M466.3 108.8C475.8 109.9 483.8 108.2 484.2 105C484.6 101.8 477.1 98.4 467.6 97.3C458.1 96.2 450.1 97.9001 449.7 101.1C449.4 104.3 456.8 107.7 466.3 108.8Z" fill="#5A7B7E"/>
<path fill-rule="evenodd" clip-rule="evenodd" d="M448.4 93C454.1 85.3 456.6 77.5 454 75.6C451.4 73.7 444.8 78.4 439.1 86.2C433.4 93.9 430.9 101.7 433.5 103.6C436 105.4 442.7 100.7 448.4 93Z" fill="#5A7B7E"/>
<path fill-rule="evenodd" clip-rule="evenodd" d="M427.2 94.3C430.3 85.2 430.3 77.1 427.3 76C424.3 75 419.4 81.5 416.3 90.6C413.2 99.7 413.2 107.8 416.2 108.9C419.2 109.9 424.2 103.3 427.2 94.3Z" fill="#5A7B7E"/>
<path fill-rule="evenodd" clip-rule="evenodd" d="M406.6 101.9C407.7 92.4 406.1 84.4 402.9 84C399.7 83.6 396.2 91 395.1 100.5C394 110 395.6 118 398.8 118.4C402 118.8 405.5 111.4 406.6 101.9Z" fill="#5A7B7E"/>
<path fill-rule="evenodd" clip-rule="evenodd" d="M382.8 120.1C383.9 110.6 382.3 102.6 379.1 102.2C375.9 101.8 372.4 109.2 371.3 118.7C370.2 128.2 371.8 136.2 375 136.6C378.1 137 381.6 129.6 382.8 120.1Z" fill="#5A7B7E"/>
<path fill-rule="evenodd" clip-rule="evenodd" d="M361.1 140.9C362.2 131.4 360.6 123.4 357.4 123C354.2 122.6 350.7 130 349.6 139.5C348.5 149 350.1 157 353.3 157.4C356.5 157.8 360 150.4 361.1 140.9Z" fill="#5A7B7E"/>
<path fill-rule="evenodd" clip-rule="evenodd" d="M371.9 150.2C381.4 148.9 389.4 150.5 389.8 153.6C390.2 156.8 382.9 160.3 373.4 161.6C363.9 162.9 355.9 161.3 355.5 158.2C355 155.1 362.4 151.5 371.9 150.2Z" fill="#5A7B7E"/>
<path fill-rule="evenodd" clip-rule="evenodd" d="M392.7 130.5C402.2 129.8 410.2 131.8 410.4 134.9C410.6 138.1 403.1 141.2 393.6 142C384.1 142.7 376.1 140.7 375.9 137.6C375.6 134.4 383.1 131.3 392.7 130.5Z" fill="#5A7B7E"/>
<path fill-rule="evenodd" clip-rule="evenodd" d="M417 117C426.5 118.4 433.8 122.1 433.3 125.3C432.8 128.5 424.8 129.9 415.3 128.5C405.8 127.1 398.5 123.4 399 120.2C399.4 117 407.5 115.6 417 117Z" fill="#5A7B7E"/>
<path fill-rule="evenodd" clip-rule="evenodd" d="M444 110.3C452.5 114.8 458.2 120.7 456.8 123.6C455.4 126.5 447.4 125.1 438.9 120.6C430.4 116.1 424.7 110.2 426.1 107.3C427.5 104.5 435.5 105.8 444 110.3Z" fill="#5A7B7E"/>
<path fill-rule="evenodd" clip-rule="evenodd" d="M317.5 183.1C317.4 183.7 316.9 184.1 316.3 184C315.7 183.9 315.3 183.4 315.4 182.8C315.4 182.5 328.9 65 405.3 27.9C405.8 27.6 406.5 27.9 406.7 28.4C407 28.9 406.7 29.6 406.2 29.8C330.9 66.4 317.5 182.8 317.5 183.1Z" fill="#3B5857"/>
<path fill-rule="evenodd" clip-rule="evenodd" d="M422.8 30.9C433.8 27.3 441.7 21.3 440.5 17.7C439.3 14 429.4 14 418.4 17.7C407.4 21.3 399.5 27.3 400.7 30.9C401.9 34.5 411.8 34.6 422.8 30.9Z" fill="#3B5857"/>
<path fill-rule="evenodd" clip-rule="evenodd" d="M394.9 22.7C397.2 11.3 396 1.50002 392.2 0.700022C388.4 -0.0999784 383.5 8.50002 381.2 19.9C378.9 31.3 380.1 41.1 383.9 41.9C387.7 42.6 392.6 34 394.9 22.7Z" fill="#3B5857"/>
<path fill-rule="evenodd" clip-rule="evenodd" d="M372.4 34.9001C371.1 23.4001 367 14.4001 363.2 14.8001C359.4 15.2001 357.3 24.9001 358.5 36.4001C359.8 47.9001 363.9 56.9001 367.7 56.5001C371.5 56.1001 373.6 46.4001 372.4 34.9001Z" fill="#3B5857"/>
<path fill-rule="evenodd" clip-rule="evenodd" d="M353.6 53.8C350 42.8 344.1 34.8 340.5 36C336.8 37.2 336.7 47.1 340.3 58.1C343.9 69.1 349.8 77.1 353.4 75.9C357.1 74.7 357.2 64.8 353.6 53.8Z" fill="#3B5857"/>
<path fill-rule="evenodd" clip-rule="evenodd" d="M336.6 85.9C333 74.9 327.1 66.9 323.5 68.1C319.8 69.3 319.7 79.2 323.3 90.2C326.9 101.2 332.8 109.2 336.4 108C340.1 106.8 340.2 96.9 336.6 85.9Z" fill="#3B5857"/>
<path fill-rule="evenodd" clip-rule="evenodd" d="M323.4 119.8C319.8 108.8 313.9 100.8 310.3 102C306.6 103.2 306.5 113.1 310.1 124.1C313.7 135.1 319.6 143.1 323.2 141.9C326.9 140.7 327 130.8 323.4 119.8Z" fill="#3B5857"/>
<path fill-rule="evenodd" clip-rule="evenodd" d="M339.9 124.5C349.7 118.3 359.3 115.9 361.4 119.2C363.5 122.5 357.2 130.1 347.4 136.3C337.6 142.5 328 144.9 325.9 141.6C323.9 138.4 330.2 130.7 339.9 124.5Z" fill="#3B5857"/>
<path fill-rule="evenodd" clip-rule="evenodd" d="M352.8 92.3C362.9 86.6 372.7 84.8 374.5 88.2C376.4 91.6 369.7 98.9 359.6 104.5C349.5 110.2 339.7 112 337.9 108.6C336 105.3 342.7 98 352.8 92.3Z" fill="#3B5857"/>
<path fill-rule="evenodd" clip-rule="evenodd" d="M372.6 65.0001C383.7 61.7001 393.6 62.1001 394.7 65.8001C395.8 69.5001 387.7 75.2 376.5 78.4C365.4 81.7 355.5 81.3001 354.4 77.6001C353.4 74.0001 361.5 68.3001 372.6 65.0001Z" fill="#3B5857"/>
<path fill-rule="evenodd" clip-rule="evenodd" d="M399 43.9C410.6 44.5 419.9 48.2 419.8 52C419.7 55.8 410.2 58.5 398.6 57.9C387 57.3 377.7 53.6 377.8 49.8C377.9 46 387.4 43.3 399 43.9Z" fill="#3B5857"/>
<path fill-rule="evenodd" clip-rule="evenodd" d="M150.5 197.4C150.6 198 150.1 198.5 149.6 198.6C149 198.7 148.5 198.2 148.4 197.7C148.4 197.4 135 81 59.6998 44.5C59.1998 44.2 58.8998 43.6 59.1998 43.1C59.4998 42.6 60.0998 42.3 60.5998 42.6C137 79.6 150.5 197.1 150.5 197.4Z" fill="#3B5857"/>
<path fill-rule="evenodd" clip-rule="evenodd" d="M43.0998 45.4C32.0998 41.8 24.1998 35.8 25.3998 32.2C26.5998 28.5 36.4998 28.5 47.4998 32.2C58.4998 35.8 66.3998 41.8 65.1998 45.4C63.9998 49.1 54.0998 49.1 43.0998 45.4Z" fill="#3B5857"/>
<path fill-rule="evenodd" clip-rule="evenodd" d="M70.8996 37.2C68.5996 25.8 69.7996 16 73.5996 15.2C77.3996 14.4 82.2996 23 84.5996 34.4C86.8996 45.8 85.6996 55.6 81.8996 56.4C78.1996 57.1 73.1996 48.5 70.8996 37.2Z" fill="#3B5857"/>
<path fill-rule="evenodd" clip-rule="evenodd" d="M93.4997 49.4001C94.7997 37.9001 98.8997 28.9001 102.7 29.3001C106.5 29.7001 108.6 39.4001 107.4 50.9001C106.1 62.4001 102 71.4001 98.1997 71.0001C94.3997 70.6001 92.2997 60.9001 93.4997 49.4001Z" fill="#3B5857"/>
<path fill-rule="evenodd" clip-rule="evenodd" d="M112.3 68.3C115.9 57.3 121.8 49.3 125.4 50.5C129.1 51.7 129.2 61.6 125.6 72.6C122 83.6 116.1 91.6 112.5 90.4C108.8 89.2 108.7 79.3 112.3 68.3Z" fill="#3B5857"/>
<path fill-rule="evenodd" clip-rule="evenodd" d="M129.3 100.4C132.9 89.4 138.8 81.4 142.4 82.6C146.1 83.8 146.2 93.7 142.6 104.7C139 115.7 133.1 123.7 129.5 122.5C125.8 121.3 125.7 111.4 129.3 100.4Z" fill="#3B5857"/>
<path fill-rule="evenodd" clip-rule="evenodd" d="M142.4 134.3C146 123.3 151.9 115.3 155.5 116.5C159.2 117.7 159.3 127.6 155.7 138.6C152.1 149.6 146.2 157.6 142.6 156.4C138.9 155.2 138.9 145.3 142.4 134.3Z" fill="#3B5857"/>
<path fill-rule="evenodd" clip-rule="evenodd" d="M125.9 139C116.1 132.8 106.5 130.4 104.4 133.7C102.3 137 108.6 144.6 118.4 150.8C128.2 157 137.8 159.4 139.9 156.1C142 152.9 135.7 145.2 125.9 139Z" fill="#3B5857"/>
<path fill-rule="evenodd" clip-rule="evenodd" d="M113 106.8C102.9 101.1 93.0998 99.3 91.2998 102.7C89.3998 106.1 96.0997 113.4 106.2 119C116.3 124.7 126.1 126.5 127.9 123.1C129.8 119.8 123.2 112.5 113 106.8Z" fill="#3B5857"/>
<path fill-rule="evenodd" clip-rule="evenodd" d="M93.2 79.5001C82.1 76.2001 72.2 76.6001 71.1 80.3001C70 84.0001 78.1 89.7 89.3 92.9C100.4 96.2 110.3 95.8001 111.4 92.1001C112.5 88.5001 104.4 82.8001 93.2 79.5001Z" fill="#3B5857"/>
<path fill-rule="evenodd" clip-rule="evenodd" d="M66.8999 58.4C55.2999 59 45.9999 62.7 46.0999 66.5C46.1999 70.4 55.6999 73 67.2999 72.4C78.8999 71.8 88.1999 68.1 88.0999 64.3C87.9999 60.4 78.4999 57.8 66.8999 58.4Z" fill="#3B5857"/>
</svg>
